<svg xmlns="http://www.w3.org/2000/svg" data-name="Layer 1" viewBox="0 0 512 512"><g data-name=" Group 3"><path fill="#00acea" d="M306.87,273.37v35.08c0,7.05-10.94,13.16-27.02,16.25a127.245,127.245,0,0,1-23.78,2.13c-28.06,0-50.8-8.22-50.8-18.38V273.37c0,10.16,22.74,18.38,50.8,18.38S306.87,283.53,306.87,273.37Z"/><path fill="#00efd1" d="M306.87,272.64v.73c0,10.16-22.74,18.38-50.8,18.38s-50.8-8.22-50.8-18.38V238.53c0,10.17,22.74,18.39,50.8,18.39s50.8-8.22,50.8-18.39Z"/><path fill="#00acea" d="M306.87,203.7v34.83c0,10.17-22.74,18.39-50.8,18.39s-50.8-8.22-50.8-18.39V203.7c0,10.15,22.75,18.39,50.8,18.39S306.87,213.85,306.87,203.7Z"/><ellipse cx="256.07" cy="203.7" fill="#00efd1" rx="50.8" ry="18.39"/><path fill="#083863" d="M49.91,387.839C64.348,410.42,93.01,422.3,131.122,422.3a222.824,222.824,0,0,0,35.519-3.049C189.063,471.082,221.407,500.66,256,500.66s66.937-29.579,89.359-81.411a222.7,222.7,0,0,0,35.519,3.049c38.108,0,66.775-11.879,81.21-34.456,20.582-32.159,9.8-79.987-29.5-131.842,39.3-51.856,50.077-99.684,29.5-131.839-18.633-29.144-60.978-40.45-116.731-31.409C322.937,40.919,290.593,11.34,256,11.34s-66.937,29.579-89.359,81.411c-55.755-9.043-98.1,2.266-116.729,31.407C29.33,156.317,40.108,204.145,79.407,256,40.107,307.856,29.33,355.684,49.91,387.839ZM256,484.66c-29.046,0-57.123-28.2-77.032-77.375-.006-.015-.012-.031-.019-.046-8.737-21.587-15.567-46.7-20.05-73.514,10.523,7.962,21.484,15.607,32.77,22.824a496.885,496.885,0,0,0,61.008,33.358c26.33,12.026,52.038,20.833,76.573,26.25C309.649,459.834,283.252,484.66,256,484.66ZM448.609,379.221c-14.677,22.959-49.819,31.819-97.186,24.788,9.545-26.091,16.558-56.281,20.389-88a500.073,500.073,0,0,0,3.558-60c0-13.436-.532-26.792-1.565-39.916A366.07,366.07,0,0,1,416.2,260.956C453.574,308.322,465.691,352.532,448.609,379.221Zm0-246.438c16.118,25.181,6.225,65.969-26.344,110.287a407.013,407.013,0,0,0-50.861-50.243c-3.908-30.566-10.758-59.618-19.983-84.836C398.788,100.961,433.929,109.82,448.611,132.783ZM256,27.34c29.046,0,57.123,28.2,77.032,77.375.006.015.012.031.019.046,8.737,21.587,15.567,46.7,20.05,73.514-10.523-7.962-21.484-15.607-32.77-22.824a496.885,496.885,0,0,0-61.008-33.358c-26.33-12.026-52.038-20.833-76.573-26.25C202.351,52.166,228.748,27.34,256,27.34Zm-79.433,83.542c24.247,5.108,49.814,13.755,76.108,25.764A480.76,480.76,0,0,1,311.71,168.93a485.474,485.474,0,0,1,44.58,32.18A485.837,485.837,0,0,1,359.37,256a484.079,484.079,0,0,1-3.442,58.081c-3.816,31.6-10.876,61.523-20.5,87.037-24.247-5.108-49.814-13.755-76.108-25.764A480.76,480.76,0,0,1,200.29,343.07a485.474,485.474,0,0,1-44.58-32.18,491.218,491.218,0,0,1,.362-112.971C159.888,166.32,166.948,136.4,176.567,110.882Zm-113.176,21.9c11.39-17.816,35.1-27.141,67.283-27.141a204.657,204.657,0,0,1,29.9,2.36c-9.543,26.089-16.556,56.276-20.386,88a500.073,500.073,0,0,0-3.558,60c0,13.436.532,26.792,1.565,39.916A366.169,366.169,0,0,1,95.8,251.047l0,0C58.426,203.678,46.309,159.468,63.391,132.779ZM89.733,268.93a407.013,407.013,0,0,0,50.861,50.243c3.908,30.566,10.758,59.618,19.983,84.836-47.369,7.029-82.508-1.829-97.188-24.792C47.271,354.036,57.164,313.248,89.733,268.93Z"/><path fill="#083863" d="M255.9,334.83l.731,0a136.937,136.937,0,0,0,24.764-2.275c21.3-4.094,33.609-12.88,33.609-24.107V203.7c0-18.132-30.68-26.39-59-26.39s-59,8.258-59,26.39V308.45C197,326.575,227.615,334.83,255.9,334.83Zm.174-141.52c26.256,0,40.683,7.163,42.685,10.39-2,3.227-16.43,10.39-42.685,10.39s-40.678-7.162-42.684-10.39C215.392,200.472,229.82,193.31,256.07,193.31ZM213,222.523c12,5.127,27.625,7.567,43,7.567s31-2.44,43-7.567V238.31c-2,3.1-16.08,10.61-43,10.61s-41-7.51-43-10.61Zm0,50.117V257.353c12,5.127,27.625,7.567,43,7.567s31-2.44,43-7.567v15.794c-2,3.1-16.1,10.6-43,10.6s-41-7.5-43-10.6Zm0,19.547c12,5.124,27.625,7.563,43,7.563s31-2.439,43-7.563v16.054c-1,1.687-6.988,5.988-20.541,8.592a120.789,120.789,0,0,1-22.491,2c-26.851,0-40.968-7.478-42.968-10.587Z"/></g></svg>